<svg width="5" height="5" viewBox="0 0 5 5" fill="none" xmlns="http://www.w3.org/2000/svg">
<g clip-path="url(#clip0_126_549)">
<path d="M4.95621 4.74501L3.74113 3.52993C4.06708 3.15521 4.26442 2.6663 4.26442 2.13193C4.26442 0.955654 3.30765 0 2.13249 0C0.956211 0 0.000556946 0.956763 0.000556946 2.13193C0.000556946 3.3071 0.95732 4.26386 2.13249 4.26386C2.66685 4.26386 3.15577 4.06652 3.53049 3.74058L4.74557 4.95565C4.77439 4.98448 4.8132 5 4.85089 5C4.88858 5 4.92739 4.98559 4.95621 4.95565C5.01386 4.898 5.01386 4.80266 4.95621 4.74501ZM0.298783 2.13193C0.298783 1.12084 1.1214 0.299335 2.13138 0.299335C3.14246 0.299335 3.96397 1.12195 3.96397 2.13193C3.96397 3.14191 3.14246 3.96563 2.13138 3.96563C1.1214 3.96563 0.298783 3.14302 0.298783 2.13193Z" fill="#FF9666"/>
</g>
<defs>
<clipPath id="clip0_126_549">
<rect width="5" height="5" fill="white"/>
</clipPath>
</defs>
</svg>
